<svg xmlns="http://www.w3.org/2000/svg" viewBox="0 0 256 256" role="img" aria-labelledby="title">
  <title id="title">Synthesix application icon</title>
  <defs>
    <linearGradient id="background" x1="32" y1="224" x2="224" y2="32" gradientUnits="userSpaceOnUse">
      <stop offset="0" stop-color="#0F172A"/>
      <stop offset="0.58" stop-color="#2563EB"/>
      <stop offset="1" stop-color="#06B6D4"/>
    </linearGradient>
    <linearGradient id="blade-a" x1="72" y1="190" x2="184" y2="64" gradientUnits="userSpaceOnUse">
      <stop offset="0" stop-color="#2563EB"/>
      <stop offset="1" stop-color="#06B6D4"/>
    </linearGradient>
    <linearGradient id="blade-b" x1="68" y1="72" x2="188" y2="184" gradientUnits="userSpaceOnUse">
      <stop offset="0" stop-color="#0F172A"/>
      <stop offset="0.45" stop-color="#2563EB"/>
      <stop offset="1" stop-color="#06B6D4"/>
    </linearGradient>
    <filter id="shadow" x="-20%" y="-20%" width="140%" height="140%">
      <feDropShadow dx="0" dy="8" stdDeviation="10" flood-color="#000000" flood-opacity="0.28"/>
    </filter>
    <path id="blade" d="M118 55 133 47l12 52-17 12-13-9z"/>
  </defs>
  <rect x="12" y="12" width="232" height="232" rx="54" fill="url(#background)"/>
  <rect x="20" y="20" width="216" height="216" rx="46" fill="none" stroke="#FFFFFF" stroke-opacity="0.16" stroke-width="2"/>
  <g filter="url(#shadow)">
    <use href="#blade" fill="url(#blade-a)"/>
    <use href="#blade" fill="url(#blade-b)" transform="rotate(36 128 128)"/>
    <use href="#blade" fill="url(#blade-a)" transform="rotate(72 128 128)"/>
    <use href="#blade" fill="url(#blade-b)" transform="rotate(108 128 128)"/>
    <use href="#blade" fill="url(#blade-a)" transform="rotate(144 128 128)"/>
    <use href="#blade" fill="url(#blade-b)" transform="rotate(180 128 128)"/>
    <use href="#blade" fill="url(#blade-a)" transform="rotate(216 128 128)"/>
    <use href="#blade" fill="url(#blade-b)" transform="rotate(252 128 128)"/>
    <use href="#blade" fill="url(#blade-a)" transform="rotate(288 128 128)"/>
    <use href="#blade" fill="url(#blade-b)" transform="rotate(324 128 128)"/>
    <circle cx="128" cy="128" r="22" fill="#0F172A"/>
    <circle cx="128" cy="128" r="18" fill="#2563EB"/>
  </g>
</svg>
